<mxfile host="Electron" agent="Mozilla/5.0 (Windows NT 10.0; Win64; x64) AppleWebKit/537.36 (KHTML, like Gecko) draw.io/26.0.9 Chrome/128.0.6613.186 Electron/32.2.5 Safari/537.36" version="26.0.9">
  <diagram name="Page-1" id="SKxrxLal9h6KwIr_2VjN">
    <mxGraphModel dx="6900" dy="3307" grid="1" gridSize="10" guides="1" tooltips="1" connect="1" arrows="1" fold="1" page="1" pageScale="1" pageWidth="850" pageHeight="1100" math="0" shadow="0">
      <root>
        <mxCell id="0" />
        <mxCell id="1" parent="0" />
        <mxCell id="W4SQOHc0aTlh--432vCz-7" style="edgeStyle=orthogonalEdgeStyle;rounded=0;orthogonalLoop=1;jettySize=auto;html=1;exitX=0.5;exitY=1;exitDx=0;exitDy=0;entryX=0.5;entryY=0;entryDx=0;entryDy=0;" parent="1" source="was6Y7-AhTUG_-qzvy3q-1" target="W4SQOHc0aTlh--432vCz-1" edge="1">
          <mxGeometry relative="1" as="geometry" />
        </mxCell>
        <mxCell id="was6Y7-AhTUG_-qzvy3q-1" value="start" style="ellipse;whiteSpace=wrap;html=1;fillColor=#0050ef;fontColor=#ffffff;strokeColor=#001DBC;" parent="1" vertex="1">
          <mxGeometry x="260" y="510" width="100" height="40" as="geometry" />
        </mxCell>
        <mxCell id="W4SQOHc0aTlh--432vCz-8" style="edgeStyle=orthogonalEdgeStyle;rounded=0;orthogonalLoop=1;jettySize=auto;html=1;exitX=0.5;exitY=1;exitDx=0;exitDy=0;" parent="1" source="W4SQOHc0aTlh--432vCz-1" edge="1">
          <mxGeometry relative="1" as="geometry">
            <mxPoint x="310" y="640" as="targetPoint" />
          </mxGeometry>
        </mxCell>
        <mxCell id="W4SQOHc0aTlh--432vCz-1" value="payload = consumeFromKafa()" style="rounded=0;whiteSpace=wrap;html=1;" parent="1" vertex="1">
          <mxGeometry x="187.5" y="580" width="245" height="30" as="geometry" />
        </mxCell>
        <mxCell id="W4SQOHc0aTlh--432vCz-9" style="edgeStyle=orthogonalEdgeStyle;rounded=0;orthogonalLoop=1;jettySize=auto;html=1;exitX=0.5;exitY=1;exitDx=0;exitDy=0;" parent="1" source="W4SQOHc0aTlh--432vCz-2" edge="1">
          <mxGeometry relative="1" as="geometry">
            <mxPoint x="310" y="740" as="targetPoint" />
          </mxGeometry>
        </mxCell>
        <mxCell id="W4SQOHc0aTlh--432vCz-2" value="customer = db.MCustomer.query(x =&amp;gt;&lt;div&gt;x.CustomerCode = payload.Customer.CustomerCode &amp;amp;&amp;amp;&lt;/div&gt;&lt;div&gt;x.Bucode = payload.Bu.Bucode)&lt;/div&gt;" style="rounded=0;whiteSpace=wrap;html=1;" parent="1" vertex="1">
          <mxGeometry x="144.38" y="650" width="331.25" height="60" as="geometry" />
        </mxCell>
        <mxCell id="W4SQOHc0aTlh--432vCz-10" style="edgeStyle=orthogonalEdgeStyle;rounded=0;orthogonalLoop=1;jettySize=auto;html=1;exitX=1;exitY=0.5;exitDx=0;exitDy=0;" parent="1" source="W4SQOHc0aTlh--432vCz-3" target="W4SQOHc0aTlh--432vCz-4" edge="1">
          <mxGeometry relative="1" as="geometry" />
        </mxCell>
        <mxCell id="W4SQOHc0aTlh--432vCz-11" style="edgeStyle=orthogonalEdgeStyle;rounded=0;orthogonalLoop=1;jettySize=auto;html=1;exitX=0;exitY=0.5;exitDx=0;exitDy=0;entryX=0.5;entryY=0;entryDx=0;entryDy=0;" parent="1" source="W4SQOHc0aTlh--432vCz-3" target="W4SQOHc0aTlh--432vCz-6" edge="1">
          <mxGeometry relative="1" as="geometry" />
        </mxCell>
        <mxCell id="W4SQOHc0aTlh--432vCz-3" value="customer is not null" style="rhombus;whiteSpace=wrap;html=1;" parent="1" vertex="1">
          <mxGeometry x="170.01" y="750" width="280" height="80" as="geometry" />
        </mxCell>
        <mxCell id="W4SQOHc0aTlh--432vCz-83" style="edgeStyle=orthogonalEdgeStyle;rounded=0;orthogonalLoop=1;jettySize=auto;html=1;exitX=0;exitY=0.5;exitDx=0;exitDy=0;" parent="1" source="W4SQOHc0aTlh--432vCz-4" edge="1">
          <mxGeometry relative="1" as="geometry">
            <mxPoint x="310" y="920" as="targetPoint" />
          </mxGeometry>
        </mxCell>
        <mxCell id="W4SQOHc0aTlh--432vCz-4" value="customerForUpdate = MappingDataForUpdate(payload)" style="rounded=0;whiteSpace=wrap;html=1;" parent="1" vertex="1">
          <mxGeometry x="432.5" y="840" width="310" height="30" as="geometry" />
        </mxCell>
        <mxCell id="W4SQOHc0aTlh--432vCz-82" style="edgeStyle=orthogonalEdgeStyle;rounded=0;orthogonalLoop=1;jettySize=auto;html=1;exitX=1;exitY=0.5;exitDx=0;exitDy=0;entryX=0.5;entryY=0;entryDx=0;entryDy=0;" parent="1" source="W4SQOHc0aTlh--432vCz-6" target="W4SQOHc0aTlh--432vCz-15" edge="1">
          <mxGeometry relative="1" as="geometry" />
        </mxCell>
        <mxCell id="W4SQOHc0aTlh--432vCz-6" value="customerForInsert = MappingDataForInsert(payload)" style="rounded=0;whiteSpace=wrap;html=1;" parent="1" vertex="1">
          <mxGeometry x="-122.5" y="840" width="310" height="30" as="geometry" />
        </mxCell>
        <mxCell id="W4SQOHc0aTlh--432vCz-12" value="T" style="text;html=1;align=center;verticalAlign=middle;resizable=0;points=[];autosize=1;strokeColor=none;fillColor=none;" parent="1" vertex="1">
          <mxGeometry x="450.01" y="760" width="30" height="30" as="geometry" />
        </mxCell>
        <mxCell id="W4SQOHc0aTlh--432vCz-13" value="F" style="text;html=1;align=center;verticalAlign=middle;resizable=0;points=[];autosize=1;strokeColor=none;fillColor=none;" parent="1" vertex="1">
          <mxGeometry x="145" y="758" width="30" height="30" as="geometry" />
        </mxCell>
        <mxCell id="W4SQOHc0aTlh--432vCz-22" style="edgeStyle=orthogonalEdgeStyle;rounded=0;orthogonalLoop=1;jettySize=auto;html=1;exitX=0;exitY=0.5;exitDx=0;exitDy=0;entryX=0.5;entryY=0;entryDx=0;entryDy=0;" parent="1" source="W4SQOHc0aTlh--432vCz-14" target="W4SQOHc0aTlh--432vCz-19" edge="1">
          <mxGeometry relative="1" as="geometry" />
        </mxCell>
        <mxCell id="W4SQOHc0aTlh--432vCz-14" value="customerAddress = db.MCustomerAddress.query(x =&amp;gt;&lt;div&gt;x.id = customer.MCustomerAddressId)&lt;/div&gt;" style="rounded=0;whiteSpace=wrap;html=1;" parent="1" vertex="1">
          <mxGeometry x="465.01" y="1010" width="314.99" height="40" as="geometry" />
        </mxCell>
        <mxCell id="W4SQOHc0aTlh--432vCz-21" style="edgeStyle=orthogonalEdgeStyle;rounded=0;orthogonalLoop=1;jettySize=auto;html=1;exitX=1;exitY=0.5;exitDx=0;exitDy=0;entryX=0.5;entryY=0;entryDx=0;entryDy=0;" parent="1" source="W4SQOHc0aTlh--432vCz-15" target="W4SQOHc0aTlh--432vCz-14" edge="1">
          <mxGeometry relative="1" as="geometry" />
        </mxCell>
        <mxCell id="W4SQOHc0aTlh--432vCz-23" style="edgeStyle=orthogonalEdgeStyle;rounded=0;orthogonalLoop=1;jettySize=auto;html=1;exitX=0.5;exitY=1;exitDx=0;exitDy=0;" parent="1" source="W4SQOHc0aTlh--432vCz-15" edge="1">
          <mxGeometry relative="1" as="geometry">
            <mxPoint x="310" y="1120" as="targetPoint" />
          </mxGeometry>
        </mxCell>
        <mxCell id="W4SQOHc0aTlh--432vCz-15" value="customer.MCustomerAddressId has value" style="rhombus;whiteSpace=wrap;html=1;" parent="1" vertex="1">
          <mxGeometry x="155.01" y="920" width="310" height="80" as="geometry" />
        </mxCell>
        <mxCell id="W4SQOHc0aTlh--432vCz-16" value="T" style="text;html=1;align=center;verticalAlign=middle;resizable=0;points=[];autosize=1;strokeColor=none;fillColor=none;" parent="1" vertex="1">
          <mxGeometry x="445.63" y="920" width="30" height="30" as="geometry" />
        </mxCell>
        <mxCell id="W4SQOHc0aTlh--432vCz-17" value="F" style="text;html=1;align=center;verticalAlign=middle;resizable=0;points=[];autosize=1;strokeColor=none;fillColor=none;" parent="1" vertex="1">
          <mxGeometry x="265" y="1000" width="30" height="30" as="geometry" />
        </mxCell>
        <mxCell id="W4SQOHc0aTlh--432vCz-30" style="edgeStyle=orthogonalEdgeStyle;rounded=0;orthogonalLoop=1;jettySize=auto;html=1;exitX=0;exitY=0.5;exitDx=0;exitDy=0;" parent="1" source="W4SQOHc0aTlh--432vCz-18" edge="1">
          <mxGeometry relative="1" as="geometry">
            <mxPoint x="310" y="1340" as="targetPoint" />
          </mxGeometry>
        </mxCell>
        <mxCell id="W4SQOHc0aTlh--432vCz-18" value="customerAddressForUpdate = MappingCustomerAddressForUpdate(payload, customerAddress)&lt;div&gt;customerAddressAffected = db.MCustomerAddress.Update(customerAddressForUpdate)&lt;/div&gt;" style="rounded=0;whiteSpace=wrap;html=1;" parent="1" vertex="1">
          <mxGeometry x="465.01" y="1210" width="544.99" height="60" as="geometry" />
        </mxCell>
        <mxCell id="W4SQOHc0aTlh--432vCz-27" style="edgeStyle=orthogonalEdgeStyle;rounded=0;orthogonalLoop=1;jettySize=auto;html=1;exitX=0;exitY=0.5;exitDx=0;exitDy=0;entryX=0.5;entryY=0;entryDx=0;entryDy=0;" parent="1" source="W4SQOHc0aTlh--432vCz-19" target="W4SQOHc0aTlh--432vCz-20" edge="1">
          <mxGeometry relative="1" as="geometry" />
        </mxCell>
        <mxCell id="W4SQOHc0aTlh--432vCz-19" value="customerAddress is not null" style="rhombus;whiteSpace=wrap;html=1;" parent="1" vertex="1">
          <mxGeometry x="155.01" y="1120" width="310" height="80" as="geometry" />
        </mxCell>
        <mxCell id="W4SQOHc0aTlh--432vCz-29" style="edgeStyle=orthogonalEdgeStyle;rounded=0;orthogonalLoop=1;jettySize=auto;html=1;exitX=1;exitY=0.5;exitDx=0;exitDy=0;" parent="1" source="W4SQOHc0aTlh--432vCz-20" target="W4SQOHc0aTlh--432vCz-28" edge="1">
          <mxGeometry relative="1" as="geometry" />
        </mxCell>
        <mxCell id="W4SQOHc0aTlh--432vCz-20" value="customerAddressForCreate = MappingCustomerAddressForCreate(payload)&lt;div&gt;customerAddressAffected = db.MCustomerAddress.Insert(customerAddressForCreate)&lt;/div&gt;" style="rounded=0;whiteSpace=wrap;html=1;" parent="1" vertex="1">
          <mxGeometry x="-290" y="1210" width="509.99" height="60" as="geometry" />
        </mxCell>
        <mxCell id="W4SQOHc0aTlh--432vCz-24" value="T" style="text;html=1;align=center;verticalAlign=middle;resizable=0;points=[];autosize=1;strokeColor=none;fillColor=none;" parent="1" vertex="1">
          <mxGeometry x="445" y="1118" width="30" height="30" as="geometry" />
        </mxCell>
        <mxCell id="W4SQOHc0aTlh--432vCz-25" value="F" style="text;html=1;align=center;verticalAlign=middle;resizable=0;points=[];autosize=1;strokeColor=none;fillColor=none;" parent="1" vertex="1">
          <mxGeometry x="140.01" y="1118" width="30" height="30" as="geometry" />
        </mxCell>
        <mxCell id="W4SQOHc0aTlh--432vCz-26" style="edgeStyle=orthogonalEdgeStyle;rounded=0;orthogonalLoop=1;jettySize=auto;html=1;exitX=1;exitY=0.5;exitDx=0;exitDy=0;entryX=0.415;entryY=-0.028;entryDx=0;entryDy=0;entryPerimeter=0;" parent="1" source="W4SQOHc0aTlh--432vCz-19" target="W4SQOHc0aTlh--432vCz-18" edge="1">
          <mxGeometry relative="1" as="geometry" />
        </mxCell>
        <mxCell id="W4SQOHc0aTlh--432vCz-80" style="edgeStyle=orthogonalEdgeStyle;rounded=0;orthogonalLoop=1;jettySize=auto;html=1;exitX=0.5;exitY=1;exitDx=0;exitDy=0;entryX=0.5;entryY=0;entryDx=0;entryDy=0;" parent="1" source="W4SQOHc0aTlh--432vCz-28" target="W4SQOHc0aTlh--432vCz-31" edge="1">
          <mxGeometry relative="1" as="geometry" />
        </mxCell>
        <mxCell id="W4SQOHc0aTlh--432vCz-28" value="customer.SetAddress(customerAddressAffected)" style="rounded=0;whiteSpace=wrap;html=1;" parent="1" vertex="1">
          <mxGeometry x="152.52999999999997" y="1340" width="312.48" height="40" as="geometry" />
        </mxCell>
        <mxCell id="W4SQOHc0aTlh--432vCz-81" style="edgeStyle=orthogonalEdgeStyle;rounded=0;orthogonalLoop=1;jettySize=auto;html=1;exitX=0.5;exitY=1;exitDx=0;exitDy=0;entryX=0.5;entryY=0;entryDx=0;entryDy=0;" parent="1" source="W4SQOHc0aTlh--432vCz-31" target="W4SQOHc0aTlh--432vCz-32" edge="1">
          <mxGeometry relative="1" as="geometry" />
        </mxCell>
        <mxCell id="W4SQOHc0aTlh--432vCz-31" value="order = db.DOrder.query(x =&amp;gt;&lt;div&gt;x.OrderNumber = payload.OrderNumber &amp;amp;&amp;amp;&lt;/div&gt;&lt;div&gt;x.BuCode = payload.bu.buCode)&lt;/div&gt;" style="rounded=0;whiteSpace=wrap;html=1;" parent="1" vertex="1">
          <mxGeometry x="140.03999999999996" y="1420" width="337.47" height="70" as="geometry" />
        </mxCell>
        <mxCell id="W4SQOHc0aTlh--432vCz-49" style="edgeStyle=orthogonalEdgeStyle;rounded=0;orthogonalLoop=1;jettySize=auto;html=1;exitX=1;exitY=0.5;exitDx=0;exitDy=0;entryX=0.5;entryY=0;entryDx=0;entryDy=0;" parent="1" source="W4SQOHc0aTlh--432vCz-32" target="W4SQOHc0aTlh--432vCz-33" edge="1">
          <mxGeometry relative="1" as="geometry" />
        </mxCell>
        <mxCell id="W4SQOHc0aTlh--432vCz-50" style="edgeStyle=orthogonalEdgeStyle;rounded=0;orthogonalLoop=1;jettySize=auto;html=1;exitX=0;exitY=0.5;exitDx=0;exitDy=0;entryX=0.5;entryY=0;entryDx=0;entryDy=0;" parent="1" source="W4SQOHc0aTlh--432vCz-32" target="W4SQOHc0aTlh--432vCz-34" edge="1">
          <mxGeometry relative="1" as="geometry" />
        </mxCell>
        <mxCell id="W4SQOHc0aTlh--432vCz-32" value="order is not null" style="rhombus;whiteSpace=wrap;html=1;" parent="1" vertex="1">
          <mxGeometry x="155.01" y="1550" width="310" height="80" as="geometry" />
        </mxCell>
        <mxCell id="W4SQOHc0aTlh--432vCz-48" style="edgeStyle=orthogonalEdgeStyle;rounded=0;orthogonalLoop=1;jettySize=auto;html=1;exitX=0;exitY=0.5;exitDx=0;exitDy=0;" parent="1" source="W4SQOHc0aTlh--432vCz-33" edge="1">
          <mxGeometry relative="1" as="geometry">
            <mxPoint x="310" y="1770" as="targetPoint" />
          </mxGeometry>
        </mxCell>
        <mxCell id="W4SQOHc0aTlh--432vCz-33" value="&lt;div&gt;&lt;span style=&quot;background-color: transparent; color: light-dark(rgb(0, 0, 0), rgb(255, 255, 255));&quot;&gt;orderForUpdate = MappingOrderForUpdate(payload, order)&lt;/span&gt;&lt;br&gt;&lt;/div&gt;&lt;div&gt;&lt;span style=&quot;background-color: transparent; color: light-dark(rgb(0, 0, 0), rgb(255, 255, 255));&quot;&gt;orderAffected =&amp;nbsp;&lt;/span&gt;db.DOrder.update(orderForUpdate)&lt;/div&gt;" style="rounded=0;whiteSpace=wrap;html=1;" parent="1" vertex="1">
          <mxGeometry x="450.01" y="1650" width="379.99" height="60" as="geometry" />
        </mxCell>
        <mxCell id="W4SQOHc0aTlh--432vCz-47" style="edgeStyle=orthogonalEdgeStyle;rounded=0;orthogonalLoop=1;jettySize=auto;html=1;exitX=1;exitY=0.5;exitDx=0;exitDy=0;entryX=0.5;entryY=0;entryDx=0;entryDy=0;" parent="1" source="W4SQOHc0aTlh--432vCz-34" target="W4SQOHc0aTlh--432vCz-38" edge="1">
          <mxGeometry relative="1" as="geometry" />
        </mxCell>
        <mxCell id="W4SQOHc0aTlh--432vCz-34" value="&lt;div&gt;&lt;span style=&quot;background-color: transparent; color: light-dark(rgb(0, 0, 0), rgb(255, 255, 255));&quot;&gt;orderForInsert = MappingOrderForInsert(payload)&lt;/span&gt;&lt;br&gt;&lt;/div&gt;&lt;div&gt;orderAffected = db.DOrder.update(orderForInsert)&lt;/div&gt;" style="rounded=0;whiteSpace=wrap;html=1;" parent="1" vertex="1">
          <mxGeometry x="-209.98000000000002" y="1650" width="379.99" height="60" as="geometry" />
        </mxCell>
        <mxCell id="W4SQOHc0aTlh--432vCz-35" value="T" style="text;html=1;align=center;verticalAlign=middle;resizable=0;points=[];autosize=1;strokeColor=none;fillColor=none;" parent="1" vertex="1">
          <mxGeometry x="455" y="1548" width="30" height="30" as="geometry" />
        </mxCell>
        <mxCell id="W4SQOHc0aTlh--432vCz-36" value="F" style="text;html=1;align=center;verticalAlign=middle;resizable=0;points=[];autosize=1;strokeColor=none;fillColor=none;" parent="1" vertex="1">
          <mxGeometry x="135" y="1548" width="30" height="30" as="geometry" />
        </mxCell>
        <mxCell id="W4SQOHc0aTlh--432vCz-44" style="edgeStyle=orthogonalEdgeStyle;rounded=0;orthogonalLoop=1;jettySize=auto;html=1;exitX=1;exitY=0.5;exitDx=0;exitDy=0;entryX=0.5;entryY=0;entryDx=0;entryDy=0;" parent="1" source="W4SQOHc0aTlh--432vCz-37" target="W4SQOHc0aTlh--432vCz-39" edge="1">
          <mxGeometry relative="1" as="geometry" />
        </mxCell>
        <mxCell id="W4SQOHc0aTlh--432vCz-45" style="edgeStyle=orthogonalEdgeStyle;rounded=0;orthogonalLoop=1;jettySize=auto;html=1;exitX=0;exitY=0.5;exitDx=0;exitDy=0;entryX=0.5;entryY=0;entryDx=0;entryDy=0;" parent="1" source="W4SQOHc0aTlh--432vCz-37" target="W4SQOHc0aTlh--432vCz-41" edge="1">
          <mxGeometry relative="1" as="geometry" />
        </mxCell>
        <mxCell id="W4SQOHc0aTlh--432vCz-37" value="order3pl is not null" style="rhombus;whiteSpace=wrap;html=1;" parent="1" vertex="1">
          <mxGeometry x="155.01" y="1900" width="310" height="80" as="geometry" />
        </mxCell>
        <mxCell id="W4SQOHc0aTlh--432vCz-46" style="edgeStyle=orthogonalEdgeStyle;rounded=0;orthogonalLoop=1;jettySize=auto;html=1;exitX=0.5;exitY=1;exitDx=0;exitDy=0;" parent="1" source="W4SQOHc0aTlh--432vCz-38" edge="1">
          <mxGeometry relative="1" as="geometry">
            <mxPoint x="308.8571428571431" y="1890" as="targetPoint" />
          </mxGeometry>
        </mxCell>
        <mxCell id="W4SQOHc0aTlh--432vCz-38" value="order3pl = db.DOrder3Pl.query(x =&amp;gt;&lt;div&gt;x.DOrderId = orderAffected.Id&lt;span style=&quot;background-color: transparent; color: light-dark(rgb(0, 0, 0), rgb(255, 255, 255));&quot;&gt;)&lt;/span&gt;&lt;/div&gt;" style="rounded=0;whiteSpace=wrap;html=1;" parent="1" vertex="1">
          <mxGeometry x="140.01" y="1770" width="337.47" height="70" as="geometry" />
        </mxCell>
        <mxCell id="W4SQOHc0aTlh--432vCz-58" style="edgeStyle=orthogonalEdgeStyle;rounded=0;orthogonalLoop=1;jettySize=auto;html=1;exitX=0;exitY=0.5;exitDx=0;exitDy=0;entryX=0.5;entryY=0;entryDx=0;entryDy=0;" parent="1" source="W4SQOHc0aTlh--432vCz-39" target="W4SQOHc0aTlh--432vCz-51" edge="1">
          <mxGeometry relative="1" as="geometry" />
        </mxCell>
        <mxCell id="W4SQOHc0aTlh--432vCz-39" value="&lt;div&gt;&lt;span style=&quot;background-color: transparent; color: light-dark(rgb(0, 0, 0), rgb(255, 255, 255));&quot;&gt;order3plForUpdate = MappingOrderForUpdate(payload, order3pl)&lt;/span&gt;&lt;br&gt;&lt;/div&gt;&lt;div&gt;&lt;span style=&quot;background-color: transparent; color: light-dark(rgb(0, 0, 0), rgb(255, 255, 255));&quot;&gt;order3plAffected =&amp;nbsp;&lt;/span&gt;db.DOrder3Pl.update(order3plForUpdate)&lt;/div&gt;" style="rounded=0;whiteSpace=wrap;html=1;" parent="1" vertex="1">
          <mxGeometry x="450.01" y="2010" width="379.99" height="60" as="geometry" />
        </mxCell>
        <mxCell id="W4SQOHc0aTlh--432vCz-57" style="edgeStyle=orthogonalEdgeStyle;rounded=0;orthogonalLoop=1;jettySize=auto;html=1;exitX=1;exitY=0.5;exitDx=0;exitDy=0;entryX=0.5;entryY=0;entryDx=0;entryDy=0;" parent="1" source="W4SQOHc0aTlh--432vCz-41" target="W4SQOHc0aTlh--432vCz-51" edge="1">
          <mxGeometry relative="1" as="geometry" />
        </mxCell>
        <mxCell id="W4SQOHc0aTlh--432vCz-41" value="&lt;div&gt;&lt;span style=&quot;background-color: transparent; color: light-dark(rgb(0, 0, 0), rgb(255, 255, 255));&quot;&gt;order3plForCreate = MappingOrderForCreate(payload, orderAffected)&lt;/span&gt;&lt;br&gt;&lt;/div&gt;&lt;div&gt;&lt;span style=&quot;background-color: transparent; color: light-dark(rgb(0, 0, 0), rgb(255, 255, 255));&quot;&gt;order3plAffected =&amp;nbsp;&lt;/span&gt;db.DOrder3Pl.insert(order3plForCreate)&lt;/div&gt;" style="rounded=0;whiteSpace=wrap;html=1;" parent="1" vertex="1">
          <mxGeometry x="-192.49" y="2010" width="379.99" height="60" as="geometry" />
        </mxCell>
        <mxCell id="W4SQOHc0aTlh--432vCz-42" value="T" style="text;html=1;align=center;verticalAlign=middle;resizable=0;points=[];autosize=1;strokeColor=none;fillColor=none;" parent="1" vertex="1">
          <mxGeometry x="445" y="1888" width="30" height="30" as="geometry" />
        </mxCell>
        <mxCell id="W4SQOHc0aTlh--432vCz-43" value="F" style="text;html=1;align=center;verticalAlign=middle;resizable=0;points=[];autosize=1;strokeColor=none;fillColor=none;" parent="1" vertex="1">
          <mxGeometry x="145" y="1888" width="30" height="30" as="geometry" />
        </mxCell>
        <mxCell id="W4SQOHc0aTlh--432vCz-59" style="edgeStyle=orthogonalEdgeStyle;rounded=0;orthogonalLoop=1;jettySize=auto;html=1;exitX=0.5;exitY=1;exitDx=0;exitDy=0;" parent="1" source="W4SQOHc0aTlh--432vCz-51" edge="1">
          <mxGeometry relative="1" as="geometry">
            <mxPoint x="310.2857142857142" y="2280" as="targetPoint" />
          </mxGeometry>
        </mxCell>
        <mxCell id="W4SQOHc0aTlh--432vCz-51" value="orderProduct = db.DOrderProduct.query(x =&amp;gt;&lt;div&gt;x.DOrderId = orderAffected.Id &amp;amp;&amp;amp;&lt;/div&gt;&lt;div&gt;&lt;span style=&quot;background-color: transparent; color: light-dark(rgb(0, 0, 0), rgb(255, 255, 255));&quot;&gt;x.ProductCode = payload.Product.Code &amp;amp;&amp;amp;&lt;/span&gt;&lt;/div&gt;&lt;div&gt;&lt;span style=&quot;background-color: transparent; color: light-dark(rgb(0, 0, 0), rgb(255, 255, 255));&quot;&gt;x.ProductSku = payload.Product.skuCode &amp;amp;&amp;amp;&lt;/span&gt;&lt;/div&gt;&lt;div&gt;&lt;span style=&quot;background-color: transparent; color: light-dark(rgb(0, 0, 0), rgb(255, 255, 255));&quot;&gt;x.ProductBarcode = payload.Product.Barcode)&lt;/span&gt;&lt;/div&gt;" style="rounded=0;whiteSpace=wrap;html=1;" parent="1" vertex="1">
          <mxGeometry x="103.77999999999997" y="2130" width="412.47" height="110" as="geometry" />
        </mxCell>
        <mxCell id="W4SQOHc0aTlh--432vCz-60" style="edgeStyle=orthogonalEdgeStyle;rounded=0;orthogonalLoop=1;jettySize=auto;html=1;exitX=1;exitY=0.5;exitDx=0;exitDy=0;entryX=0.5;entryY=0;entryDx=0;entryDy=0;" parent="1" source="W4SQOHc0aTlh--432vCz-52" target="W4SQOHc0aTlh--432vCz-53" edge="1">
          <mxGeometry relative="1" as="geometry" />
        </mxCell>
        <mxCell id="W4SQOHc0aTlh--432vCz-61" style="edgeStyle=orthogonalEdgeStyle;rounded=0;orthogonalLoop=1;jettySize=auto;html=1;exitX=0;exitY=0.5;exitDx=0;exitDy=0;entryX=0.5;entryY=0;entryDx=0;entryDy=0;" parent="1" source="W4SQOHc0aTlh--432vCz-52" target="W4SQOHc0aTlh--432vCz-54" edge="1">
          <mxGeometry relative="1" as="geometry" />
        </mxCell>
        <mxCell id="W4SQOHc0aTlh--432vCz-52" value="orderProduct is not null" style="rhombus;whiteSpace=wrap;html=1;" parent="1" vertex="1">
          <mxGeometry x="155.01" y="2290" width="310" height="80" as="geometry" />
        </mxCell>
        <mxCell id="W4SQOHc0aTlh--432vCz-68" style="edgeStyle=orthogonalEdgeStyle;rounded=0;orthogonalLoop=1;jettySize=auto;html=1;exitX=0;exitY=0.5;exitDx=0;exitDy=0;" parent="1" source="W4SQOHc0aTlh--432vCz-53" edge="1">
          <mxGeometry relative="1" as="geometry">
            <mxPoint x="310" y="2520" as="targetPoint" />
          </mxGeometry>
        </mxCell>
        <mxCell id="W4SQOHc0aTlh--432vCz-53" value="&lt;div&gt;&lt;span style=&quot;background-color: transparent; color: light-dark(rgb(0, 0, 0), rgb(255, 255, 255));&quot;&gt;orderProductForUpdate = MappingOrderProductForUpdate(payload, orderProduct)&lt;/span&gt;&lt;br&gt;&lt;/div&gt;&lt;div&gt;&lt;span style=&quot;background-color: transparent; color: light-dark(rgb(0, 0, 0), rgb(255, 255, 255));&quot;&gt;orderProductAffected =&amp;nbsp;&lt;/span&gt;db.DOrderProduct.update(orderProductForUpdate)&lt;/div&gt;" style="rounded=0;whiteSpace=wrap;html=1;" parent="1" vertex="1">
          <mxGeometry x="450.01" y="2400" width="479.99" height="60" as="geometry" />
        </mxCell>
        <mxCell id="W4SQOHc0aTlh--432vCz-67" style="edgeStyle=orthogonalEdgeStyle;rounded=0;orthogonalLoop=1;jettySize=auto;html=1;exitX=1;exitY=0.5;exitDx=0;exitDy=0;entryX=0.5;entryY=0;entryDx=0;entryDy=0;" parent="1" source="W4SQOHc0aTlh--432vCz-54" target="W4SQOHc0aTlh--432vCz-62" edge="1">
          <mxGeometry relative="1" as="geometry" />
        </mxCell>
        <mxCell id="W4SQOHc0aTlh--432vCz-54" value="&lt;div&gt;&lt;span style=&quot;background-color: transparent; color: light-dark(rgb(0, 0, 0), rgb(255, 255, 255));&quot;&gt;orderProductForInsert = MappingOrderProductForInsert(payload)&lt;/span&gt;&lt;br&gt;&lt;/div&gt;&lt;div&gt;&lt;span style=&quot;background-color: transparent; color: light-dark(rgb(0, 0, 0), rgb(255, 255, 255));&quot;&gt;orderProductAffected =&amp;nbsp;&lt;/span&gt;db.DOrderProduct.insert(orderProductForInsert)&lt;/div&gt;" style="rounded=0;whiteSpace=wrap;html=1;" parent="1" vertex="1">
          <mxGeometry x="-300" y="2400" width="479.99" height="60" as="geometry" />
        </mxCell>
        <mxCell id="W4SQOHc0aTlh--432vCz-55" value="T" style="text;html=1;align=center;verticalAlign=middle;resizable=0;points=[];autosize=1;strokeColor=none;fillColor=none;" parent="1" vertex="1">
          <mxGeometry x="445" y="2278" width="30" height="30" as="geometry" />
        </mxCell>
        <mxCell id="W4SQOHc0aTlh--432vCz-56" value="F" style="text;html=1;align=center;verticalAlign=middle;resizable=0;points=[];autosize=1;strokeColor=none;fillColor=none;" parent="1" vertex="1">
          <mxGeometry x="145" y="2278" width="30" height="30" as="geometry" />
        </mxCell>
        <mxCell id="W4SQOHc0aTlh--432vCz-69" style="edgeStyle=orthogonalEdgeStyle;rounded=0;orthogonalLoop=1;jettySize=auto;html=1;exitX=0.5;exitY=1;exitDx=0;exitDy=0;" parent="1" source="W4SQOHc0aTlh--432vCz-62" edge="1">
          <mxGeometry relative="1" as="geometry">
            <mxPoint x="309.0588235294117" y="2630" as="targetPoint" />
          </mxGeometry>
        </mxCell>
        <mxCell id="W4SQOHc0aTlh--432vCz-62" value="orderSubProduct = db.DOrderSubProduct.query(x =&amp;gt;&lt;div&gt;x.DOrderProductId = orderProductAffected.Id&lt;span style=&quot;background-color: transparent; color: light-dark(rgb(0, 0, 0), rgb(255, 255, 255));&quot;&gt;)&lt;/span&gt;&lt;/div&gt;" style="rounded=0;whiteSpace=wrap;html=1;" parent="1" vertex="1">
          <mxGeometry x="123.74000000000001" y="2520" width="370" height="60" as="geometry" />
        </mxCell>
        <mxCell id="W4SQOHc0aTlh--432vCz-72" style="edgeStyle=orthogonalEdgeStyle;rounded=0;orthogonalLoop=1;jettySize=auto;html=1;exitX=1;exitY=0.5;exitDx=0;exitDy=0;" parent="1" source="W4SQOHc0aTlh--432vCz-63" target="W4SQOHc0aTlh--432vCz-64" edge="1">
          <mxGeometry relative="1" as="geometry" />
        </mxCell>
        <mxCell id="W4SQOHc0aTlh--432vCz-73" style="edgeStyle=orthogonalEdgeStyle;rounded=0;orthogonalLoop=1;jettySize=auto;html=1;exitX=0;exitY=0.5;exitDx=0;exitDy=0;entryX=0.5;entryY=0;entryDx=0;entryDy=0;" parent="1" source="W4SQOHc0aTlh--432vCz-63" target="W4SQOHc0aTlh--432vCz-66" edge="1">
          <mxGeometry relative="1" as="geometry" />
        </mxCell>
        <mxCell id="W4SQOHc0aTlh--432vCz-63" value="orderSubProduct&amp;nbsp;is not null" style="rhombus;whiteSpace=wrap;html=1;" parent="1" vertex="1">
          <mxGeometry x="153.74" y="2640" width="310" height="80" as="geometry" />
        </mxCell>
        <mxCell id="W4SQOHc0aTlh--432vCz-77" style="edgeStyle=orthogonalEdgeStyle;rounded=0;orthogonalLoop=1;jettySize=auto;html=1;exitX=0;exitY=0.5;exitDx=0;exitDy=0;" parent="1" source="W4SQOHc0aTlh--432vCz-64" edge="1">
          <mxGeometry relative="1" as="geometry">
            <mxPoint x="310" y="2860" as="targetPoint" />
          </mxGeometry>
        </mxCell>
        <mxCell id="W4SQOHc0aTlh--432vCz-64" value="&lt;div&gt;&lt;span style=&quot;background-color: transparent; color: light-dark(rgb(0, 0, 0), rgb(255, 255, 255));&quot;&gt;orderSubProductForUpdate = MappingOrderSubProductForUpdate(payload, orderSubProduct)&lt;/span&gt;&lt;br&gt;&lt;/div&gt;&lt;div&gt;&lt;span style=&quot;background-color: transparent; color: light-dark(rgb(0, 0, 0), rgb(255, 255, 255));&quot;&gt;orderSubProductAffected =&amp;nbsp;&lt;/span&gt;db.DOrderSubProduct.update(orderSubProductForUpdate)&lt;/div&gt;" style="rounded=0;whiteSpace=wrap;html=1;" parent="1" vertex="1">
          <mxGeometry x="450.01" y="2740" width="519.99" height="60" as="geometry" />
        </mxCell>
        <mxCell id="W4SQOHc0aTlh--432vCz-76" style="edgeStyle=orthogonalEdgeStyle;rounded=0;orthogonalLoop=1;jettySize=auto;html=1;exitX=1;exitY=0.5;exitDx=0;exitDy=0;entryX=0.5;entryY=0;entryDx=0;entryDy=0;" parent="1" source="W4SQOHc0aTlh--432vCz-66" target="W4SQOHc0aTlh--432vCz-74" edge="1">
          <mxGeometry relative="1" as="geometry" />
        </mxCell>
        <mxCell id="W4SQOHc0aTlh--432vCz-66" value="&lt;div&gt;&lt;span style=&quot;background-color: transparent; color: light-dark(rgb(0, 0, 0), rgb(255, 255, 255));&quot;&gt;orderSubProductForCreate = MappingOrderSubProductForCreate(payload)&lt;/span&gt;&lt;br&gt;&lt;/div&gt;&lt;div&gt;&lt;span style=&quot;background-color: transparent; color: light-dark(rgb(0, 0, 0), rgb(255, 255, 255));&quot;&gt;orderSubProductAffected =&amp;nbsp;&lt;/span&gt;db.DOrderSubProduct.insert(orderSubProductForCreate)&lt;/div&gt;" style="rounded=0;whiteSpace=wrap;html=1;" parent="1" vertex="1">
          <mxGeometry x="-332.49" y="2740" width="519.99" height="60" as="geometry" />
        </mxCell>
        <mxCell id="W4SQOHc0aTlh--432vCz-70" value="T" style="text;html=1;align=center;verticalAlign=middle;resizable=0;points=[];autosize=1;strokeColor=none;fillColor=none;" parent="1" vertex="1">
          <mxGeometry x="435" y="2638" width="30" height="30" as="geometry" />
        </mxCell>
        <mxCell id="W4SQOHc0aTlh--432vCz-71" value="F" style="text;html=1;align=center;verticalAlign=middle;resizable=0;points=[];autosize=1;strokeColor=none;fillColor=none;" parent="1" vertex="1">
          <mxGeometry x="145" y="2638" width="30" height="30" as="geometry" />
        </mxCell>
        <mxCell id="W4SQOHc0aTlh--432vCz-79" style="edgeStyle=orthogonalEdgeStyle;rounded=0;orthogonalLoop=1;jettySize=auto;html=1;exitX=0.5;exitY=1;exitDx=0;exitDy=0;entryX=0.5;entryY=0;entryDx=0;entryDy=0;" parent="1" source="W4SQOHc0aTlh--432vCz-74" target="W4SQOHc0aTlh--432vCz-78" edge="1">
          <mxGeometry relative="1" as="geometry" />
        </mxCell>
        <mxCell id="W4SQOHc0aTlh--432vCz-74" value="eventPayload = prepareEventPayload()&lt;div&gt;sendEvent(eventPayload)&lt;/div&gt;" style="rounded=0;whiteSpace=wrap;html=1;" parent="1" vertex="1">
          <mxGeometry x="167.51999999999998" y="2860" width="284.99" height="40" as="geometry" />
        </mxCell>
        <mxCell id="W4SQOHc0aTlh--432vCz-78" value="end" style="ellipse;whiteSpace=wrap;html=1;fillColor=#0050ef;fontColor=#ffffff;strokeColor=#001DBC;" parent="1" vertex="1">
          <mxGeometry x="258.74" y="2930" width="100" height="40" as="geometry" />
        </mxCell>
        <mxCell id="eMuKlb9e5YOqvA5AfMj2-1" value="&lt;div&gt;{&lt;/div&gt;&lt;div&gt;&amp;nbsp; &amp;nbsp; &quot;ReferenceNo&quot;: &quot;CDS320250206088860-0239225&quot;,&lt;/div&gt;&lt;div&gt;&amp;nbsp; &amp;nbsp; &quot;OrderNumber&quot;: &quot;CDS3P2502-000052&quot;,&lt;/div&gt;&lt;div&gt;&amp;nbsp; &amp;nbsp; &quot;TrackingNo&quot;: &quot;DHL0202502000003&quot;,&lt;/div&gt;&lt;div&gt;&amp;nbsp; &amp;nbsp; &quot;RequestDate&quot;: &quot;2025-02-05T17:00:00.000Z&quot;,&lt;/div&gt;&lt;div&gt;&amp;nbsp; &amp;nbsp; &quot;Remark&quot;: &quot;&quot;,&lt;/div&gt;&lt;div&gt;&amp;nbsp; &amp;nbsp; &quot;TaxNumber&quot;: null,&lt;/div&gt;&lt;div&gt;&amp;nbsp; &amp;nbsp; &quot;ShippingType&quot;: &quot;Online&quot;,&lt;/div&gt;&lt;div&gt;&amp;nbsp; &amp;nbsp; &quot;OrderType&quot;: &quot;Storepick&quot;,&lt;/div&gt;&lt;div&gt;&amp;nbsp; &amp;nbsp; &quot;ServiceLevel&quot;: &quot;Standard&quot;,&lt;/div&gt;&lt;div&gt;&amp;nbsp; &amp;nbsp; &quot;ServiceType&quot;: &quot;Home Delivery&quot;,&lt;/div&gt;&lt;div&gt;&amp;nbsp; &amp;nbsp; &quot;OrderId&quot;: &quot;CDS320250206088860&quot;,&lt;/div&gt;&lt;div&gt;&amp;nbsp; &amp;nbsp; &quot;ShipmentId&quot;: &quot;CDS3202502060888601&quot;,&lt;/div&gt;&lt;div&gt;&amp;nbsp; &amp;nbsp; &quot;DeliveryType&quot;: &quot;0001&quot;,&lt;/div&gt;&lt;div&gt;&amp;nbsp; &amp;nbsp; &quot;DeliverySubType&quot;: &quot;0003&quot;,&lt;/div&gt;&lt;div&gt;&amp;nbsp; &amp;nbsp; &quot;FulfillLoc&quot;: &quot;10142&quot;,&lt;/div&gt;&lt;div&gt;&amp;nbsp; &amp;nbsp; &quot;CarrierName&quot;: &quot;Fareye&quot;,&lt;/div&gt;&lt;div&gt;&amp;nbsp; &amp;nbsp; &quot;FulfilmentID&quot;: &quot;0239225&quot;,&lt;/div&gt;&lt;div&gt;&amp;nbsp; &amp;nbsp; &quot;MerchantID&quot;: null,&lt;/div&gt;&lt;div&gt;&amp;nbsp; &amp;nbsp; &quot;CustomerID&quot;: null,&lt;/div&gt;&lt;div&gt;&amp;nbsp; &amp;nbsp; &quot;PickupInstruction&quot;: &quot;&quot;,&lt;/div&gt;&lt;div&gt;&amp;nbsp; &amp;nbsp; &quot;FulfillBU&quot;: &quot;CDS&quot;,&lt;/div&gt;&lt;div&gt;&amp;nbsp; &amp;nbsp; &quot;Organization&quot;: &quot;DS-UAT&quot;,&lt;/div&gt;&lt;div&gt;&amp;nbsp; &amp;nbsp; &quot;IsInvalidStruckChecker&quot;: false,&lt;/div&gt;&lt;div&gt;&amp;nbsp; &amp;nbsp; &quot;Customer&quot;: {&lt;/div&gt;&lt;div&gt;&amp;nbsp; &amp;nbsp; &amp;nbsp; &amp;nbsp; &quot;Company&quot;: &quot;&quot;,&lt;/div&gt;&lt;div&gt;&amp;nbsp; &amp;nbsp; &amp;nbsp; &amp;nbsp; &quot;CustomerCode&quot;: &quot;L250000023&quot;,&lt;/div&gt;&lt;div&gt;&amp;nbsp; &amp;nbsp; &amp;nbsp; &amp;nbsp; &quot;FirstName&quot;: &quot;sulasit&quot;,&lt;/div&gt;&lt;div&gt;&amp;nbsp; &amp;nbsp; &amp;nbsp; &amp;nbsp; &quot;LastName&quot;: &quot;k&quot;,&lt;/div&gt;&lt;div&gt;&amp;nbsp; &amp;nbsp; &amp;nbsp; &amp;nbsp; &quot;Email&quot;: &quot;dummyemail_0zajl2vh_sulasitkongsip@xyz.com&quot;,&lt;/div&gt;&lt;div&gt;&amp;nbsp; &amp;nbsp; &amp;nbsp; &amp;nbsp; &quot;Mobile&quot;: &quot;0622623163&quot;,&lt;/div&gt;&lt;div&gt;&amp;nbsp; &amp;nbsp; &amp;nbsp; &amp;nbsp; &quot;Tel&quot;: null,&lt;/div&gt;&lt;div&gt;&amp;nbsp; &amp;nbsp; &amp;nbsp; &amp;nbsp; &quot;Address&quot;: {&lt;/div&gt;&lt;div&gt;&amp;nbsp; &amp;nbsp; &amp;nbsp; &amp;nbsp; &amp;nbsp; &amp;nbsp; &quot;HouseNumber&quot;: &quot;&quot;,&lt;/div&gt;&lt;div&gt;&amp;nbsp; &amp;nbsp; &amp;nbsp; &amp;nbsp; &amp;nbsp; &amp;nbsp; &quot;Village&quot;: &quot;92&quot;,&lt;/div&gt;&lt;div&gt;&amp;nbsp; &amp;nbsp; &amp;nbsp; &amp;nbsp; &amp;nbsp; &amp;nbsp; &quot;Moo&quot;: &quot;&quot;,&lt;/div&gt;&lt;div&gt;&amp;nbsp; &amp;nbsp; &amp;nbsp; &amp;nbsp; &amp;nbsp; &amp;nbsp; &quot;Soi&quot;: &quot;&quot;,&lt;/div&gt;&lt;div&gt;&amp;nbsp; &amp;nbsp; &amp;nbsp; &amp;nbsp; &amp;nbsp; &amp;nbsp; &quot;Road&quot;: &quot;&quot;,&lt;/div&gt;&lt;div&gt;&amp;nbsp; &amp;nbsp; &amp;nbsp; &amp;nbsp; &amp;nbsp; &amp;nbsp; &quot;SubDistrictName&quot;: &quot;ในเมือง&quot;,&lt;/div&gt;&lt;div&gt;&amp;nbsp; &amp;nbsp; &amp;nbsp; &amp;nbsp; &amp;nbsp; &amp;nbsp; &quot;DistrictName&quot;: &quot;เมืองขอนแก่น&quot;,&lt;/div&gt;&lt;div&gt;&amp;nbsp; &amp;nbsp; &amp;nbsp; &amp;nbsp; &amp;nbsp; &amp;nbsp; &quot;ProvinceName&quot;: &quot;ขอนแก่น&quot;,&lt;/div&gt;&lt;div&gt;&amp;nbsp; &amp;nbsp; &amp;nbsp; &amp;nbsp; &amp;nbsp; &amp;nbsp; &quot;ZipCode&quot;: &quot;40000&quot;,&lt;/div&gt;&lt;div&gt;&amp;nbsp; &amp;nbsp; &amp;nbsp; &amp;nbsp; &amp;nbsp; &amp;nbsp; &quot;CountryCode&quot;: &quot;TH&quot;,&lt;/div&gt;&lt;div&gt;&amp;nbsp; &amp;nbsp; &amp;nbsp; &amp;nbsp; &amp;nbsp; &amp;nbsp; &quot;Tel&quot;: &quot;0622623163&quot;,&lt;/div&gt;&lt;div&gt;&amp;nbsp; &amp;nbsp; &amp;nbsp; &amp;nbsp; &amp;nbsp; &amp;nbsp; &quot;RoomNumber&quot;: null,&lt;/div&gt;&lt;div&gt;&amp;nbsp; &amp;nbsp; &amp;nbsp; &amp;nbsp; &amp;nbsp; &amp;nbsp; &quot;FloorNumber&quot;: null,&lt;/div&gt;&lt;div&gt;&amp;nbsp; &amp;nbsp; &amp;nbsp; &amp;nbsp; &amp;nbsp; &amp;nbsp; &quot;ProvinceCode&quot;: null,&lt;/div&gt;&lt;div&gt;&amp;nbsp; &amp;nbsp; &amp;nbsp; &amp;nbsp; &amp;nbsp; &amp;nbsp; &quot;Coordination&quot;: {&lt;/div&gt;&lt;div&gt;&amp;nbsp; &amp;nbsp; &amp;nbsp; &amp;nbsp; &amp;nbsp; &amp;nbsp; &amp;nbsp; &amp;nbsp; &quot;Latitude&quot;: &quot;16.4321921&quot;,&lt;/div&gt;&lt;div&gt;&amp;nbsp; &amp;nbsp; &amp;nbsp; &amp;nbsp; &amp;nbsp; &amp;nbsp; &amp;nbsp; &amp;nbsp; &quot;Longitude&quot;: &quot;102.8236093&quot;&lt;/div&gt;&lt;div&gt;&amp;nbsp; &amp;nbsp; &amp;nbsp; &amp;nbsp; &amp;nbsp; &amp;nbsp; }&lt;/div&gt;&lt;div&gt;&amp;nbsp; &amp;nbsp; &amp;nbsp; &amp;nbsp; }&lt;/div&gt;&lt;div&gt;&amp;nbsp; &amp;nbsp; },&lt;/div&gt;&lt;div&gt;&amp;nbsp; &amp;nbsp; &quot;AWB&quot;: {&lt;/div&gt;&lt;div&gt;&amp;nbsp; &amp;nbsp; &amp;nbsp; &amp;nbsp; &quot;Url&quot;: &quot;https://cgtms-sit.central.co.th/utility/api/awb/6e32cdd5-4ca5-42e7-a5c7-fef446346816.pdf/?d=awbFile_CDS320250206088860-0239225_DHL0202502000003&quot;,&lt;/div&gt;&lt;div&gt;&amp;nbsp; &amp;nbsp; &amp;nbsp; &amp;nbsp; &quot;Name&quot;: &quot;6e32cdd5-4ca5-42e7-a5c7-fef446346816&quot;&lt;/div&gt;&lt;div&gt;&amp;nbsp; &amp;nbsp; },&lt;/div&gt;&lt;div&gt;&amp;nbsp; &amp;nbsp; &quot;Place&quot;: {&lt;/div&gt;&lt;div&gt;&amp;nbsp; &amp;nbsp; &amp;nbsp; &amp;nbsp; &quot;Code&quot;: &quot;P3PL001&quot;,&lt;/div&gt;&lt;div&gt;&amp;nbsp; &amp;nbsp; &amp;nbsp; &amp;nbsp; &quot;Code2Digit&quot;: &quot;3P&quot;,&lt;/div&gt;&lt;div&gt;&amp;nbsp; &amp;nbsp; &amp;nbsp; &amp;nbsp; &quot;MechandiseCode&quot;: &quot;99999&quot;&lt;/div&gt;&lt;div&gt;&amp;nbsp; &amp;nbsp; },&lt;/div&gt;&lt;div&gt;&amp;nbsp; &amp;nbsp; &quot;Package&quot;: {&lt;/div&gt;&lt;div&gt;&amp;nbsp; &amp;nbsp; &amp;nbsp; &amp;nbsp; &quot;TotalPrice&quot;: 2950.0,&lt;/div&gt;&lt;div&gt;&amp;nbsp; &amp;nbsp; &amp;nbsp; &amp;nbsp; &quot;IsCod&quot;: 0,&lt;/div&gt;&lt;div&gt;&amp;nbsp; &amp;nbsp; &amp;nbsp; &amp;nbsp; &quot;CodAmount&quot;: 0.0,&lt;/div&gt;&lt;div&gt;&amp;nbsp; &amp;nbsp; &amp;nbsp; &amp;nbsp; &quot;Weight&quot;: 1.00,&lt;/div&gt;&lt;div&gt;&amp;nbsp; &amp;nbsp; &amp;nbsp; &amp;nbsp; &quot;Width&quot;: 21.5,&lt;/div&gt;&lt;div&gt;&amp;nbsp; &amp;nbsp; &amp;nbsp; &amp;nbsp; &quot;Height&quot;: 7.5,&lt;/div&gt;&lt;div&gt;&amp;nbsp; &amp;nbsp; &amp;nbsp; &amp;nbsp; &quot;Length&quot;: 14.5,&lt;/div&gt;&lt;div&gt;&amp;nbsp; &amp;nbsp; &amp;nbsp; &amp;nbsp; &quot;Insured&quot;: 1,&lt;/div&gt;&lt;div&gt;&amp;nbsp; &amp;nbsp; &amp;nbsp; &amp;nbsp; &quot;InsuredAmount&quot;: 0.0,&lt;/div&gt;&lt;div&gt;&amp;nbsp; &amp;nbsp; &amp;nbsp; &amp;nbsp; &quot;Size&quot;: 0.00,&lt;/div&gt;&lt;div&gt;&amp;nbsp; &amp;nbsp; &amp;nbsp; &amp;nbsp; &quot;DimWeight&quot;: 0.00&lt;/div&gt;&lt;div&gt;&amp;nbsp; &amp;nbsp; },&lt;/div&gt;&lt;div&gt;&amp;nbsp; &amp;nbsp; &quot;Product&quot;: {&lt;/div&gt;&lt;div&gt;&amp;nbsp; &amp;nbsp; &amp;nbsp; &amp;nbsp; &quot;Code&quot;: &quot;P0000000&quot;,&lt;/div&gt;&lt;div&gt;&amp;nbsp; &amp;nbsp; &amp;nbsp; &amp;nbsp; &quot;SkuCode&quot;: &quot;000999999&quot;,&lt;/div&gt;&lt;div&gt;&amp;nbsp; &amp;nbsp; &amp;nbsp; &amp;nbsp; &quot;BarCode&quot;: &quot;8000009999999&quot;,&lt;/div&gt;&lt;div&gt;&amp;nbsp; &amp;nbsp; &amp;nbsp; &amp;nbsp; &quot;Name&quot;: &quot;3PL Product Dummy&quot;&lt;/div&gt;&lt;div&gt;&amp;nbsp; &amp;nbsp; },&lt;/div&gt;&lt;div&gt;&amp;nbsp; &amp;nbsp; &quot;Sender&quot;: {&lt;/div&gt;&lt;div&gt;&amp;nbsp; &amp;nbsp; &amp;nbsp; &amp;nbsp; &quot;FirstName&quot;: &quot;เซ็นทรัล เอ็มบาสซี่&quot;,&lt;/div&gt;&lt;div&gt;&amp;nbsp; &amp;nbsp; &amp;nbsp; &amp;nbsp; &quot;LastName&quot;: &quot;0621958177&quot;,&lt;/div&gt;&lt;div&gt;&amp;nbsp; &amp;nbsp; &amp;nbsp; &amp;nbsp; &quot;Tel&quot;: &quot;0621958177&quot;,&lt;/div&gt;&lt;div&gt;&amp;nbsp; &amp;nbsp; &amp;nbsp; &amp;nbsp; &quot;Company&quot;: &quot;&quot;,&lt;/div&gt;&lt;div&gt;&amp;nbsp; &amp;nbsp; &amp;nbsp; &amp;nbsp; &quot;Email&quot;: &quot;customerservice@central.co.th&quot;,&lt;/div&gt;&lt;div&gt;&amp;nbsp; &amp;nbsp; &amp;nbsp; &amp;nbsp; &quot;Address1&quot;: &quot;เลขที่ 1031 ถนนเพลินจิต&quot;,&lt;/div&gt;&lt;div&gt;&amp;nbsp; &amp;nbsp; &amp;nbsp; &amp;nbsp; &quot;Address2&quot;: &quot;&quot;,&lt;/div&gt;&lt;div&gt;&amp;nbsp; &amp;nbsp; &amp;nbsp; &amp;nbsp; &quot;Address&quot;: {&lt;/div&gt;&lt;div&gt;&amp;nbsp; &amp;nbsp; &amp;nbsp; &amp;nbsp; &amp;nbsp; &amp;nbsp; &quot;HouseNumber&quot;: null,&lt;/div&gt;&lt;div&gt;&amp;nbsp; &amp;nbsp; &amp;nbsp; &amp;nbsp; &amp;nbsp; &amp;nbsp; &quot;Village&quot;: null,&lt;/div&gt;&lt;div&gt;&amp;nbsp; &amp;nbsp; &amp;nbsp; &amp;nbsp; &amp;nbsp; &amp;nbsp; &quot;Moo&quot;: null,&lt;/div&gt;&lt;div&gt;&amp;nbsp; &amp;nbsp; &amp;nbsp; &amp;nbsp; &amp;nbsp; &amp;nbsp; &quot;Soi&quot;: null,&lt;/div&gt;&lt;div&gt;&amp;nbsp; &amp;nbsp; &amp;nbsp; &amp;nbsp; &amp;nbsp; &amp;nbsp; &quot;Road&quot;: null,&lt;/div&gt;&lt;div&gt;&amp;nbsp; &amp;nbsp; &amp;nbsp; &amp;nbsp; &amp;nbsp; &amp;nbsp; &quot;SubDistrictName&quot;: &quot;ลุมพินี &quot;,&lt;/div&gt;&lt;div&gt;&amp;nbsp; &amp;nbsp; &amp;nbsp; &amp;nbsp; &amp;nbsp; &amp;nbsp; &quot;DistrictName&quot;: &quot;ปทุมวัน&quot;,&lt;/div&gt;&lt;div&gt;&amp;nbsp; &amp;nbsp; &amp;nbsp; &amp;nbsp; &amp;nbsp; &amp;nbsp; &quot;ProvinceName&quot;: &quot;กรุงเทพมหานคร&quot;,&lt;/div&gt;&lt;div&gt;&amp;nbsp; &amp;nbsp; &amp;nbsp; &amp;nbsp; &amp;nbsp; &amp;nbsp; &quot;ZipCode&quot;: &quot;10330&quot;,&lt;/div&gt;&lt;div&gt;&amp;nbsp; &amp;nbsp; &amp;nbsp; &amp;nbsp; &amp;nbsp; &amp;nbsp; &quot;CountryCode&quot;: &quot;TH&quot;,&lt;/div&gt;&lt;div&gt;&amp;nbsp; &amp;nbsp; &amp;nbsp; &amp;nbsp; &amp;nbsp; &amp;nbsp; &quot;Tel&quot;: &quot;0621958177&quot;,&lt;/div&gt;&lt;div&gt;&amp;nbsp; &amp;nbsp; &amp;nbsp; &amp;nbsp; &amp;nbsp; &amp;nbsp; &quot;RoomNumber&quot;: null,&lt;/div&gt;&lt;div&gt;&amp;nbsp; &amp;nbsp; &amp;nbsp; &amp;nbsp; &amp;nbsp; &amp;nbsp; &quot;FloorNumber&quot;: null,&lt;/div&gt;&lt;div&gt;&amp;nbsp; &amp;nbsp; &amp;nbsp; &amp;nbsp; &amp;nbsp; &amp;nbsp; &quot;ProvinceCode&quot;: null,&lt;/div&gt;&lt;div&gt;&amp;nbsp; &amp;nbsp; &amp;nbsp; &amp;nbsp; &amp;nbsp; &amp;nbsp; &quot;Coordination&quot;: {&lt;/div&gt;&lt;div&gt;&amp;nbsp; &amp;nbsp; &amp;nbsp; &amp;nbsp; &amp;nbsp; &amp;nbsp; &amp;nbsp; &amp;nbsp; &quot;Latitude&quot;: &quot;13.7437&quot;,&lt;/div&gt;&lt;div&gt;&amp;nbsp; &amp;nbsp; &amp;nbsp; &amp;nbsp; &amp;nbsp; &amp;nbsp; &amp;nbsp; &amp;nbsp; &quot;Longitude&quot;: &quot;100.5466&quot;&lt;/div&gt;&lt;div&gt;&amp;nbsp; &amp;nbsp; &amp;nbsp; &amp;nbsp; &amp;nbsp; &amp;nbsp; }&lt;/div&gt;&lt;div&gt;&amp;nbsp; &amp;nbsp; &amp;nbsp; &amp;nbsp; }&lt;/div&gt;&lt;div&gt;&amp;nbsp; &amp;nbsp; },&lt;/div&gt;&lt;div&gt;&amp;nbsp; &amp;nbsp; &quot;Tracking&quot;: {&lt;/div&gt;&lt;div&gt;&amp;nbsp; &amp;nbsp; &amp;nbsp; &amp;nbsp; &quot;IsUsed&quot;: null,&lt;/div&gt;&lt;div&gt;&amp;nbsp; &amp;nbsp; &amp;nbsp; &amp;nbsp; &quot;IsValid&quot;: null,&lt;/div&gt;&lt;div&gt;&amp;nbsp; &amp;nbsp; &amp;nbsp; &amp;nbsp; &quot;CantGenerate&quot;: false,&lt;/div&gt;&lt;div&gt;&amp;nbsp; &amp;nbsp; &amp;nbsp; &amp;nbsp; &quot;CheckTrackingMessage&quot;: null,&lt;/div&gt;&lt;div&gt;&amp;nbsp; &amp;nbsp; &amp;nbsp; &amp;nbsp; &quot;GenerateTrackingMessage&quot;: null&lt;/div&gt;&lt;div&gt;&amp;nbsp; &amp;nbsp; },&lt;/div&gt;&lt;div&gt;&amp;nbsp; &amp;nbsp; &quot;DynamicSelection&quot;: {&lt;/div&gt;&lt;div&gt;&amp;nbsp; &amp;nbsp; &amp;nbsp; &amp;nbsp; &quot;VendorCarrierName&quot;: &quot;DHL&quot;,&lt;/div&gt;&lt;div&gt;&amp;nbsp; &amp;nbsp; &amp;nbsp; &amp;nbsp; &quot;DeliveryPromise&quot;: 2,&lt;/div&gt;&lt;div&gt;&amp;nbsp; &amp;nbsp; &amp;nbsp; &amp;nbsp; &quot;IsInvalid&quot;: false,&lt;/div&gt;&lt;div&gt;&amp;nbsp; &amp;nbsp; &amp;nbsp; &amp;nbsp; &quot;FailureMessage&quot;: null&lt;/div&gt;&lt;div&gt;&amp;nbsp; &amp;nbsp; },&lt;/div&gt;&lt;div&gt;&amp;nbsp; &amp;nbsp; &quot;Bu&quot;: {&lt;/div&gt;&lt;div&gt;&amp;nbsp; &amp;nbsp; &amp;nbsp; &amp;nbsp; &quot;BuCode&quot;: &quot;CDS&quot;,&lt;/div&gt;&lt;div&gt;&amp;nbsp; &amp;nbsp; &amp;nbsp; &amp;nbsp; &quot;HasBuCode&quot;: true,&lt;/div&gt;&lt;div&gt;&amp;nbsp; &amp;nbsp; &amp;nbsp; &amp;nbsp; &quot;ShortName&quot;: &quot;CENTRAL&quot;&lt;/div&gt;&lt;div&gt;&amp;nbsp; &amp;nbsp; },&lt;/div&gt;&lt;div&gt;&amp;nbsp; &amp;nbsp; &quot;ServiceTypeValidation&quot;: {&lt;/div&gt;&lt;div&gt;&amp;nbsp; &amp;nbsp; &amp;nbsp; &amp;nbsp; &quot;NameLocal&quot;: &quot;Home Delivery&quot;,&lt;/div&gt;&lt;div&gt;&amp;nbsp; &amp;nbsp; &amp;nbsp; &amp;nbsp; &quot;NameEN&quot;: &quot;Home Delivery&quot;,&lt;/div&gt;&lt;div&gt;&amp;nbsp; &amp;nbsp; &amp;nbsp; &amp;nbsp; &quot;ServiceTypeCode&quot;: &quot;0001&quot;,&lt;/div&gt;&lt;div&gt;&amp;nbsp; &amp;nbsp; &amp;nbsp; &amp;nbsp; &quot;FailureMessage&quot;: null,&lt;/div&gt;&lt;div&gt;&amp;nbsp; &amp;nbsp; &amp;nbsp; &amp;nbsp; &quot;IsInvalid&quot;: false&lt;/div&gt;&lt;div&gt;&amp;nbsp; &amp;nbsp; },&lt;/div&gt;&lt;div&gt;&amp;nbsp; &amp;nbsp; &quot;Publisher&quot;: &quot;tms-portal&quot;,&lt;/div&gt;&lt;div&gt;&amp;nbsp; &amp;nbsp; &quot;SagaId&quot;: &quot;ca39a452c8bd8fd30c76f9b51f892244&quot;,&lt;/div&gt;&lt;div&gt;&amp;nbsp; &amp;nbsp; &quot;Environment&quot;: &quot;Sit&quot;,&lt;/div&gt;&lt;div&gt;&amp;nbsp; &amp;nbsp; &quot;EventName&quot;: &quot;Order3PLCreatedEvent&quot;,&lt;/div&gt;&lt;div&gt;&amp;nbsp; &amp;nbsp; &quot;DomainStatus&quot;: &quot;CREATING&quot;,&lt;/div&gt;&lt;div&gt;&amp;nbsp; &amp;nbsp; &quot;ProviderCode&quot;: &quot;3PLP&quot;,&lt;/div&gt;&lt;div&gt;&amp;nbsp; &amp;nbsp; &quot;Username&quot;: &quot;TMSSystem&quot;,&lt;/div&gt;&lt;div&gt;&amp;nbsp; &amp;nbsp; &quot;FailureMessages&quot;: [],&lt;/div&gt;&lt;div&gt;&amp;nbsp; &amp;nbsp; &quot;Id&quot;: &quot;1b339512-be1c-40c3-aa1d-28b88af8df6b&quot;,&lt;/div&gt;&lt;div&gt;&amp;nbsp; &amp;nbsp; &quot;CreationDate&quot;: &quot;2025-02-06T07:32:39.563832Z&quot;&lt;/div&gt;&lt;div&gt;}&lt;/div&gt;" style="text;html=1;align=left;verticalAlign=middle;resizable=0;points=[];autosize=1;strokeColor=none;fillColor=none;" parent="1" vertex="1">
          <mxGeometry x="-1350" y="670" width="930" height="2120" as="geometry" />
        </mxCell>
        <mxCell id="eMuKlb9e5YOqvA5AfMj2-3" value="&lt;font style=&quot;font-size: 37px;&quot;&gt;Input: Order3PLCreatedEvent&lt;/font&gt;" style="text;html=1;align=center;verticalAlign=middle;resizable=0;points=[];autosize=1;strokeColor=none;fillColor=none;" parent="1" vertex="1">
          <mxGeometry x="-257.49" y="300" width="510" height="60" as="geometry" />
        </mxCell>
      </root>
    </mxGraphModel>
  </diagram>
</mxfile>
